<?xml version="1.0" standalone="no"?>
<!DOCTYPE svg PUBLIC "-//W3C//DTD SVG 20010904//EN"
 "http://www.w3.org/TR/2001/REC-SVG-20010904/DTD/svg10.dtd">
<svg version="1.0" xmlns="http://www.w3.org/2000/svg"
 width="512.000000pt" height="512.000000pt" viewBox="0 0 512.000000 512.000000"
 preserveAspectRatio="xMidYMid meet">

<g transform="translate(0.000000,512.000000) scale(0.100000,-0.100000)"
fill="#000000" stroke="none">
<path d="M1607 4257 c-515 -253 -933 -465 -929 -469 12 -12 1866 -990 1878
-991 10 0 1872 1017 1886 1031 8 8 -1859 892 -1882 892 -8 -1 -437 -209 -953
-463z"/>
<path d="M3762 3111 c-529 -290 -965 -530 -968 -533 -3 -3 103 -141 235 -307
l240 -300 813 465 c447 256 863 495 925 530 l112 65 -42 67 c-176 282 -343
542 -347 542 -3 -1 -438 -238 -968 -529z"/>
<path d="M191 3316 l-190 -285 32 -19 c18 -11 419 -241 892 -512 473 -271 874
-500 891 -511 l31 -19 233 292 c128 160 233 298 234 305 1 11 -838 461 -1771
949 l-162 85 -190 -285z"/>
<path d="M480 1906 l0 -494 961 -507 c528 -279 962 -505 965 -503 2 3 3 406 2
896 l-3 891 -205 -257 c-113 -141 -220 -267 -239 -279 -42 -28 -98 -30 -149
-4 -21 11 -325 184 -676 385 -352 201 -643 366 -647 366 -5 0 -9 -222 -9 -494z"/>
<path d="M3945 2014 c-720 -413 -703 -405 -779 -369 -22 11 -100 100 -242 277
l-209 262 -3 -447 c-1 -246 -1 -647 0 -891 l3 -444 958 526 957 525 0 474 c0
260 -3 473 -7 472 -5 0 -309 -173 -678 -385z"/>
</g>
</svg>
