<svg width="45" height="43" viewBox="0 0 45 43" fill="none" xmlns="http://www.w3.org/2000/svg">
<g id="Frame 68">
<path id="Rectangle 1" d="M20.6822 17.9568H44.2335V25.2528H20.6822V17.9568Z" fill="#4195C7"/>
<path id="Subtract" fill-rule="evenodd" clip-rule="evenodd" d="M17.0596 34.3519C26.4813 34.3519 34.1191 26.662 34.1191 17.1759C34.1191 7.68993 26.4813 0 17.0596 0C7.63782 0 0 7.68993 0 17.1759C0 26.662 7.63782 34.3519 17.0596 34.3519ZM17.0596 27.9679C22.9794 27.9679 27.7784 23.1362 27.7784 17.1759C27.7784 11.2157 22.9794 6.38398 17.0596 6.38398C11.1397 6.38398 6.34072 11.2157 6.34072 17.1759C6.34072 23.1362 11.1397 27.9679 17.0596 27.9679Z" fill="#1E1E1E"/>
<path id="Rectangle 2" d="M18.8251 18.5485C20.4903 17.4314 22.7398 17.8849 23.8494 19.5615L36.6839 38.9543L30.6535 43L17.819 23.6071C16.7094 21.9305 17.1598 19.6657 18.8251 18.5485Z" fill="#40C853"/>
</g>
</svg>
